<mxfile host="Electron" modified="2024-01-05T08:45:29.500Z" agent="Mozilla/5.0 (Windows NT 10.0; Win64; x64) AppleWebKit/537.36 (KHTML, like Gecko) draw.io/21.6.8 Chrome/114.0.5735.289 Electron/25.5.0 Safari/537.36" etag="hvKERgJLuJuS0mRGx2qu" version="21.6.8" type="device">
  <diagram name="Page-1" id="5T3awKHTDb7sWs-uiDAW">
    <mxGraphModel dx="1134" dy="741" grid="1" gridSize="10" guides="1" tooltips="1" connect="1" arrows="1" fold="1" page="1" pageScale="1" pageWidth="1169" pageHeight="827" math="0" shadow="0">
      <root>
        <mxCell id="0" />
        <mxCell id="1" parent="0" />
        <mxCell id="ryW0QQnS5Vi5lhK6h0E0-6" value="&lt;p style=&quot;margin:0px;margin-top:4px;text-align:center;text-decoration:underline;&quot;&gt;&lt;b&gt;Admin:Library&lt;/b&gt;&lt;/p&gt;&lt;hr&gt;&lt;p style=&quot;margin:0px;margin-left:8px;&quot;&gt;Id = 001&lt;br&gt;username = &quot;admin&quot;&lt;br&gt;password = &quot;&quot;4GGG44&quot;&lt;/p&gt;" style="verticalAlign=top;align=left;overflow=fill;fontSize=12;fontFamily=Helvetica;html=1;whiteSpace=wrap;" parent="1" vertex="1">
          <mxGeometry x="440" y="330" width="160" height="90" as="geometry" />
        </mxCell>
        <mxCell id="ryW0QQnS5Vi5lhK6h0E0-7" value="&lt;p style=&quot;margin:0px;margin-top:4px;text-align:center;text-decoration:underline;&quot;&gt;&lt;b&gt;Book01:Book&lt;/b&gt;&lt;/p&gt;&lt;hr&gt;&lt;p style=&quot;margin:0px;margin-left:8px;&quot;&gt;ID = 555&lt;br&gt;Name = &quot;onepiece&quot;&lt;br&gt;Author = &quot;Ichira Oda&quot;&lt;/p&gt;" style="verticalAlign=top;align=left;overflow=fill;fontSize=12;fontFamily=Helvetica;html=1;whiteSpace=wrap;" parent="1" vertex="1">
          <mxGeometry x="310" y="540" width="160" height="90" as="geometry" />
        </mxCell>
        <mxCell id="ryW0QQnS5Vi5lhK6h0E0-8" value="&lt;p style=&quot;margin:0px;margin-top:4px;text-align:center;text-decoration:underline;&quot;&gt;&lt;b&gt;Transaction01:Transaction&lt;/b&gt;&lt;/p&gt;&lt;hr&gt;&lt;p style=&quot;margin:0px;margin-left:8px;&quot;&gt;ID = 0001&lt;/p&gt;&lt;p style=&quot;margin:0px;margin-left:8px;&quot;&gt;MemberID = 05&lt;/p&gt;&lt;p style=&quot;margin:0px;margin-left:8px;&quot;&gt;BookID = 26&lt;br&gt;Issue Sate = 2024/1/5&lt;br&gt;Return Date = 2024/1/20&lt;/p&gt;" style="verticalAlign=top;align=left;overflow=fill;fontSize=12;fontFamily=Helvetica;html=1;whiteSpace=wrap;" parent="1" vertex="1">
          <mxGeometry x="780" y="240" width="160" height="110" as="geometry" />
        </mxCell>
        <mxCell id="ryW0QQnS5Vi5lhK6h0E0-10" value="&lt;p style=&quot;margin:0px;margin-top:4px;text-align:center;text-decoration:underline;&quot;&gt;&lt;b&gt;Librarian:Staff&lt;/b&gt;&lt;/p&gt;&lt;hr&gt;&lt;p style=&quot;margin:0px;margin-left:8px;&quot;&gt;ID = &quot;34&quot;&lt;br&gt;Name = &quot;Amanan&quot;&lt;br&gt;Post = &quot;Librarian&quot;&lt;/p&gt;" style="verticalAlign=top;align=left;overflow=fill;fontSize=12;fontFamily=Helvetica;html=1;whiteSpace=wrap;" parent="1" vertex="1">
          <mxGeometry x="440" y="30" width="160" height="90" as="geometry" />
        </mxCell>
        <mxCell id="ryW0QQnS5Vi5lhK6h0E0-11" value="&lt;p style=&quot;margin:0px;margin-top:4px;text-align:center;text-decoration:underline;&quot;&gt;&lt;b&gt;Student02:Student&lt;/b&gt;&lt;/p&gt;&lt;hr&gt;&lt;p style=&quot;margin:0px;margin-left:8px;&quot;&gt;Id = 05&lt;/p&gt;&lt;p style=&quot;margin:0px;margin-left:8px;&quot;&gt;Name = &quot;Amana&quot;&lt;br&gt;MemberType = &quot;Normal&quot;&lt;/p&gt;" style="verticalAlign=top;align=left;overflow=fill;fontSize=12;fontFamily=Helvetica;html=1;whiteSpace=wrap;" parent="1" vertex="1">
          <mxGeometry x="90" y="469" width="160" height="90" as="geometry" />
        </mxCell>
        <mxCell id="ryW0QQnS5Vi5lhK6h0E0-12" value="&lt;p style=&quot;margin:0px;margin-top:4px;text-align:center;text-decoration:underline;&quot;&gt;&lt;b&gt;Student01:Student&lt;/b&gt;&lt;/p&gt;&lt;hr&gt;&lt;p style=&quot;margin:0px;margin-left:8px;&quot;&gt;id = 04&lt;br&gt;name = &quot;Aman&quot;&lt;br&gt;MemberType = &quot;Normal&quot;&amp;nbsp;&lt;/p&gt;" style="verticalAlign=top;align=left;overflow=fill;fontSize=12;fontFamily=Helvetica;html=1;whiteSpace=wrap;" parent="1" vertex="1">
          <mxGeometry x="100" y="330" width="160" height="90" as="geometry" />
        </mxCell>
        <mxCell id="ryW0QQnS5Vi5lhK6h0E0-13" value="&lt;p style=&quot;margin:0px;margin-top:4px;text-align:center;text-decoration:underline;&quot;&gt;&lt;b&gt;Book02:Book&lt;/b&gt;&lt;/p&gt;&lt;hr&gt;&lt;p style=&quot;margin:0px;margin-left:8px;&quot;&gt;ID = 677&lt;br&gt;Name = &quot;Bleach&quot;&lt;br&gt;Author = &quot;Tite Kubo&quot;&lt;/p&gt;" style="verticalAlign=top;align=left;overflow=fill;fontSize=12;fontFamily=Helvetica;html=1;whiteSpace=wrap;" parent="1" vertex="1">
          <mxGeometry x="540" y="540" width="160" height="90" as="geometry" />
        </mxCell>
        <mxCell id="ryW0QQnS5Vi5lhK6h0E0-14" value="&lt;p style=&quot;margin:0px;margin-top:4px;text-align:center;text-decoration:underline;&quot;&gt;&lt;b&gt;Receipt02:Bill&lt;/b&gt;&lt;/p&gt;&lt;hr&gt;&lt;p style=&quot;margin:0px;margin-left:8px;&quot;&gt;ID = 05&lt;br&gt;MemberID = 06&lt;/p&gt;&lt;p style=&quot;margin:0px;margin-left:8px;&quot;&gt;BookID = 02&lt;br&gt;No of books&amp;nbsp; = 1&lt;/p&gt;&lt;p style=&quot;margin:0px;margin-left:8px;&quot;&gt;Days : &quot;15 days&quot;&lt;/p&gt;&lt;p style=&quot;margin:0px;margin-left:8px;&quot;&gt;Amount = 75&lt;/p&gt;" style="verticalAlign=top;align=left;overflow=fill;fontSize=12;fontFamily=Helvetica;html=1;whiteSpace=wrap;" parent="1" vertex="1">
          <mxGeometry x="100" y="160" width="160" height="120" as="geometry" />
        </mxCell>
        <mxCell id="ryW0QQnS5Vi5lhK6h0E0-15" value="&lt;p style=&quot;margin:0px;margin-top:4px;text-align:center;text-decoration:underline;&quot;&gt;&lt;b&gt;Receipt01:Bill&lt;/b&gt;&lt;/p&gt;&lt;hr&gt;&lt;p style=&quot;margin:0px;margin-left:8px;&quot;&gt;ID = 04&lt;/p&gt;&lt;p style=&quot;margin:0px;margin-left:8px;&quot;&gt;MemberID = 03&lt;/p&gt;&lt;p style=&quot;margin:0px;margin-left:8px;&quot;&gt;BookID = 07&lt;br&gt;No of books = 2&lt;/p&gt;&lt;p style=&quot;margin:0px;margin-left:8px;&quot;&gt;Days : &quot;1 month&quot;&lt;br&gt;Amount = 150&lt;/p&gt;" style="verticalAlign=top;align=left;overflow=fill;fontSize=12;fontFamily=Helvetica;html=1;whiteSpace=wrap;" parent="1" vertex="1">
          <mxGeometry x="100" width="160" height="120" as="geometry" />
        </mxCell>
        <mxCell id="ryW0QQnS5Vi5lhK6h0E0-16" value="&lt;p style=&quot;border-color: var(--border-color); text-decoration-line: underline; margin: 4px 0px 0px; text-align: center;&quot;&gt;&lt;b style=&quot;border-color: var(--border-color);&quot;&gt;Transaction02:Transaction&lt;/b&gt;&lt;/p&gt;&lt;hr style=&quot;border-color: var(--border-color);&quot;&gt;&lt;p style=&quot;border-color: var(--border-color); margin: 0px 0px 0px 8px;&quot;&gt;ID = 0002&lt;/p&gt;&lt;p style=&quot;border-color: var(--border-color); margin: 0px 0px 0px 8px;&quot;&gt;MemberID = 34&lt;/p&gt;&lt;p style=&quot;border-color: var(--border-color); margin: 0px 0px 0px 8px;&quot;&gt;BookID = 28&lt;br style=&quot;border-color: var(--border-color);&quot;&gt;Issue Sate = 2024/1/4&lt;br style=&quot;border-color: var(--border-color);&quot;&gt;Return Date = 2024/1/9&lt;/p&gt;" style="verticalAlign=top;align=left;overflow=fill;fontSize=12;fontFamily=Helvetica;html=1;whiteSpace=wrap;" parent="1" vertex="1">
          <mxGeometry x="780" y="420" width="160" height="110" as="geometry" />
        </mxCell>
        <mxCell id="ryW0QQnS5Vi5lhK6h0E0-37" value="" style="endArrow=none;html=1;rounded=0;entryX=1;entryY=0.5;entryDx=0;entryDy=0;exitX=0;exitY=0.5;exitDx=0;exitDy=0;" parent="1" source="ryW0QQnS5Vi5lhK6h0E0-6" target="ryW0QQnS5Vi5lhK6h0E0-11" edge="1">
          <mxGeometry width="50" height="50" relative="1" as="geometry">
            <mxPoint x="440" y="370" as="sourcePoint" />
            <mxPoint x="590" y="330" as="targetPoint" />
            <Array as="points">
              <mxPoint x="330" y="375" />
              <mxPoint x="330" y="514" />
            </Array>
          </mxGeometry>
        </mxCell>
        <mxCell id="ryW0QQnS5Vi5lhK6h0E0-38" value="" style="endArrow=none;html=1;rounded=0;entryX=1;entryY=0.5;entryDx=0;entryDy=0;" parent="1" target="ryW0QQnS5Vi5lhK6h0E0-12" edge="1">
          <mxGeometry width="50" height="50" relative="1" as="geometry">
            <mxPoint x="440" y="375" as="sourcePoint" />
            <mxPoint x="590" y="330" as="targetPoint" />
          </mxGeometry>
        </mxCell>
        <mxCell id="ryW0QQnS5Vi5lhK6h0E0-39" value="" style="endArrow=none;html=1;rounded=0;entryX=0.5;entryY=0;entryDx=0;entryDy=0;" parent="1" target="ryW0QQnS5Vi5lhK6h0E0-7" edge="1">
          <mxGeometry width="50" height="50" relative="1" as="geometry">
            <mxPoint x="520" y="420" as="sourcePoint" />
            <mxPoint x="590" y="330" as="targetPoint" />
            <Array as="points">
              <mxPoint x="520" y="500" />
              <mxPoint x="390" y="500" />
            </Array>
          </mxGeometry>
        </mxCell>
        <mxCell id="ryW0QQnS5Vi5lhK6h0E0-40" value="" style="endArrow=none;html=1;rounded=0;entryX=0.542;entryY=-0.058;entryDx=0;entryDy=0;entryPerimeter=0;" parent="1" target="ryW0QQnS5Vi5lhK6h0E0-13" edge="1">
          <mxGeometry width="50" height="50" relative="1" as="geometry">
            <mxPoint x="520" y="420" as="sourcePoint" />
            <mxPoint x="590" y="330" as="targetPoint" />
            <Array as="points">
              <mxPoint x="520" y="500" />
              <mxPoint x="627" y="500" />
            </Array>
          </mxGeometry>
        </mxCell>
        <mxCell id="ryW0QQnS5Vi5lhK6h0E0-41" value="" style="endArrow=none;html=1;rounded=0;entryX=-0.006;entryY=0.619;entryDx=0;entryDy=0;entryPerimeter=0;exitX=1;exitY=0.75;exitDx=0;exitDy=0;" parent="1" source="ryW0QQnS5Vi5lhK6h0E0-6" target="ryW0QQnS5Vi5lhK6h0E0-16" edge="1">
          <mxGeometry width="50" height="50" relative="1" as="geometry">
            <mxPoint x="540" y="380" as="sourcePoint" />
            <mxPoint x="590" y="330" as="targetPoint" />
            <Array as="points">
              <mxPoint x="700" y="400" />
              <mxPoint x="700" y="488" />
            </Array>
          </mxGeometry>
        </mxCell>
        <mxCell id="ryW0QQnS5Vi5lhK6h0E0-42" value="" style="endArrow=none;html=1;rounded=0;entryX=0;entryY=0.5;entryDx=0;entryDy=0;exitX=1;exitY=0.5;exitDx=0;exitDy=0;" parent="1" source="ryW0QQnS5Vi5lhK6h0E0-6" target="ryW0QQnS5Vi5lhK6h0E0-8" edge="1">
          <mxGeometry width="50" height="50" relative="1" as="geometry">
            <mxPoint x="540" y="380" as="sourcePoint" />
            <mxPoint x="590" y="330" as="targetPoint" />
            <Array as="points">
              <mxPoint x="700" y="375" />
              <mxPoint x="700" y="295" />
            </Array>
          </mxGeometry>
        </mxCell>
        <mxCell id="ryW0QQnS5Vi5lhK6h0E0-43" value="" style="endArrow=none;html=1;rounded=0;entryX=1.004;entryY=0.632;entryDx=0;entryDy=0;entryPerimeter=0;" parent="1" target="ryW0QQnS5Vi5lhK6h0E0-14" edge="1">
          <mxGeometry width="50" height="50" relative="1" as="geometry">
            <mxPoint x="440" y="80" as="sourcePoint" />
            <mxPoint x="590" y="330" as="targetPoint" />
            <Array as="points">
              <mxPoint x="330" y="80" />
              <mxPoint x="330" y="236" />
            </Array>
          </mxGeometry>
        </mxCell>
        <mxCell id="ryW0QQnS5Vi5lhK6h0E0-44" value="" style="endArrow=none;html=1;rounded=0;" parent="1" edge="1">
          <mxGeometry width="50" height="50" relative="1" as="geometry">
            <mxPoint x="440" y="80" as="sourcePoint" />
            <mxPoint x="260" y="80" as="targetPoint" />
          </mxGeometry>
        </mxCell>
        <mxCell id="ryW0QQnS5Vi5lhK6h0E0-45" value="" style="endArrow=none;html=1;rounded=0;exitX=0.5;exitY=0;exitDx=0;exitDy=0;" parent="1" source="ryW0QQnS5Vi5lhK6h0E0-6" target="ryW0QQnS5Vi5lhK6h0E0-10" edge="1">
          <mxGeometry width="50" height="50" relative="1" as="geometry">
            <mxPoint x="500" y="360" as="sourcePoint" />
            <mxPoint x="550" y="310" as="targetPoint" />
          </mxGeometry>
        </mxCell>
        <mxCell id="ryW0QQnS5Vi5lhK6h0E0-46" value="" style="endArrow=none;html=1;rounded=0;entryX=0;entryY=0.5;entryDx=0;entryDy=0;exitX=0;exitY=0.5;exitDx=0;exitDy=0;" parent="1" source="ryW0QQnS5Vi5lhK6h0E0-11" target="ryW0QQnS5Vi5lhK6h0E0-15" edge="1">
          <mxGeometry width="50" height="50" relative="1" as="geometry">
            <mxPoint x="30" y="250" as="sourcePoint" />
            <mxPoint x="550" y="290" as="targetPoint" />
            <Array as="points">
              <mxPoint x="50" y="514" />
              <mxPoint x="60" y="60" />
            </Array>
          </mxGeometry>
        </mxCell>
        <mxCell id="ryW0QQnS5Vi5lhK6h0E0-47" value="" style="endArrow=none;html=1;rounded=0;entryX=0.5;entryY=1;entryDx=0;entryDy=0;exitX=0.5;exitY=0;exitDx=0;exitDy=0;" parent="1" source="ryW0QQnS5Vi5lhK6h0E0-12" target="ryW0QQnS5Vi5lhK6h0E0-14" edge="1">
          <mxGeometry width="50" height="50" relative="1" as="geometry">
            <mxPoint x="500" y="340" as="sourcePoint" />
            <mxPoint x="550" y="290" as="targetPoint" />
          </mxGeometry>
        </mxCell>
        <mxCell id="ryW0QQnS5Vi5lhK6h0E0-48" value="" style="endArrow=none;html=1;rounded=0;exitX=0.99;exitY=0.629;exitDx=0;exitDy=0;exitPerimeter=0;entryX=0;entryY=0.5;entryDx=0;entryDy=0;" parent="1" source="ryW0QQnS5Vi5lhK6h0E0-14" target="ryW0QQnS5Vi5lhK6h0E0-6" edge="1">
          <mxGeometry width="50" height="50" relative="1" as="geometry">
            <mxPoint x="500" y="390" as="sourcePoint" />
            <mxPoint x="550" y="340" as="targetPoint" />
            <Array as="points">
              <mxPoint x="330" y="235" />
              <mxPoint x="330" y="375" />
            </Array>
          </mxGeometry>
        </mxCell>
        <mxCell id="ryW0QQnS5Vi5lhK6h0E0-49" value="" style="endArrow=none;html=1;rounded=0;exitX=0;exitY=0.5;exitDx=0;exitDy=0;entryX=0;entryY=0.5;entryDx=0;entryDy=0;" parent="1" source="ryW0QQnS5Vi5lhK6h0E0-12" target="ryW0QQnS5Vi5lhK6h0E0-7" edge="1">
          <mxGeometry width="50" height="50" relative="1" as="geometry">
            <mxPoint x="500" y="390" as="sourcePoint" />
            <mxPoint x="80" y="620" as="targetPoint" />
            <Array as="points">
              <mxPoint x="80" y="375" />
              <mxPoint x="80" y="500" />
              <mxPoint x="60" y="510" />
              <mxPoint x="80" y="530" />
              <mxPoint x="80" y="585" />
            </Array>
          </mxGeometry>
        </mxCell>
        <mxCell id="ryW0QQnS5Vi5lhK6h0E0-50" value="" style="endArrow=none;html=1;rounded=0;exitX=0.5;exitY=1;exitDx=0;exitDy=0;" parent="1" source="ryW0QQnS5Vi5lhK6h0E0-13" edge="1">
          <mxGeometry width="50" height="50" relative="1" as="geometry">
            <mxPoint x="640" y="680" as="sourcePoint" />
            <mxPoint x="50" y="510" as="targetPoint" />
            <Array as="points">
              <mxPoint x="620" y="660" />
              <mxPoint x="50" y="660" />
            </Array>
          </mxGeometry>
        </mxCell>
        <mxCell id="ryW0QQnS5Vi5lhK6h0E0-51" value="" style="endArrow=none;html=1;rounded=0;entryX=1.004;entryY=0.664;entryDx=0;entryDy=0;entryPerimeter=0;exitX=0;exitY=0.5;exitDx=0;exitDy=0;" parent="1" source="ryW0QQnS5Vi5lhK6h0E0-6" target="ryW0QQnS5Vi5lhK6h0E0-15" edge="1">
          <mxGeometry width="50" height="50" relative="1" as="geometry">
            <mxPoint x="500" y="390" as="sourcePoint" />
            <mxPoint x="550" y="340" as="targetPoint" />
            <Array as="points">
              <mxPoint x="330" y="375" />
              <mxPoint x="330" y="80" />
            </Array>
          </mxGeometry>
        </mxCell>
      </root>
    </mxGraphModel>
  </diagram>
</mxfile>
